<svg id="Layer_1" data-name="Layer 1" xmlns="http://www.w3.org/2000/svg" viewBox="0 0 50 50"><defs><style>.cls-1{fill:none;stroke:#f36e21;stroke-miterlimit:10;stroke-width:2px;}.cls-2{fill:#f36e21;}</style></defs><title>Artboard 4</title><path class="cls-1" d="M39.87,36.22H10.13A3.13,3.13,0,0,1,7,33.09v-18A3.13,3.13,0,0,1,10.13,12H39.87A3.13,3.13,0,0,1,43,15.13v18A3.13,3.13,0,0,1,39.87,36.22Z"/><polyline class="cls-2" points="36.45 36.87 43 42.76 42.52 35.41"/><rect class="cls-2" x="10.93" y="30.98" width="28.8" height="1.31"/><rect class="cls-2" x="10.93" y="27.05" width="28.8" height="1.31"/><rect class="cls-2" x="10.93" y="23.13" width="28.8" height="1.31"/><rect class="cls-2" x="10.93" y="19.2" width="28.8" height="1.31"/><rect class="cls-2" x="10.93" y="15.27" width="28.8" height="1.31"/></svg>