<?xml version="1.0" encoding="utf-8"?>
<!-- Generator: Adobe Illustrator 21.1.0, SVG Export Plug-In . SVG Version: 6.00 Build 0)  -->
<svg version="1.1" id="Layer_1" xmlns="http://www.w3.org/2000/svg" xmlns:xlink="http://www.w3.org/1999/xlink" x="0px" y="0px"
	 viewBox="0 0 300 300" style="enable-background:new 0 0 300 300;" xml:space="preserve">
<style type="text/css">
	.st0{fill:#F36E21;}
</style>
<g>
	<g>
		<path class="st0" d="M285.5,43.2v179h-271v-179H285.5 M286.5,30.2h-273c-6.6,0-12,5.4-12,12v181c0,6.6,5.4,12,12,12h273
			c6.6,0,12-5.4,12-12v-181C298.5,35.7,293.1,30.2,286.5,30.2L286.5,30.2z"/>
	</g>
	<g>
		<polygon class="st0" points="273,55.2 27,55.2 27,77.2 273,77.2 273,55.2 		"/>
	</g>
	<g>
		<polygon class="st0" points="273,189.2 27,189.2 27,211.2 273,211.2 273,189.2 		"/>
	</g>
	<g>
		<polygon class="st0" points="273,122.2 27,122.2 27,144.2 273,144.2 273,122.2 		"/>
	</g>
	<g>
		<polygon class="st0" points="273,155.2 27,155.2 27,177.2 273,177.2 273,155.2 		"/>
	</g>
	<g>
		<polygon class="st0" points="273,89.2 27,89.2 27,111.2 273,111.2 273,89.2 		"/>
	</g>
	<polyline class="st0" points="226.5,230.8 262.5,269.8 269.5,228.8 	"/>
</g>
</svg>
