<?xml version="1.0" encoding="utf-8"?>
<!-- Generator: Adobe Illustrator 21.1.0, SVG Export Plug-In . SVG Version: 6.00 Build 0)  -->
<svg version="1.1" id="Layer_1" xmlns="http://www.w3.org/2000/svg" xmlns:xlink="http://www.w3.org/1999/xlink" x="0px" y="0px"
	 viewBox="0 0 300 300" style="enable-background:new 0 0 300 300;" xml:space="preserve">
<style type="text/css">
	.st0{fill:none;stroke:#F36E21;stroke-width:13;stroke-miterlimit:10;}
</style>
<path class="st0" d="M276.8,161.1v-22.8l-27.9-3.4c-2.5-16.6-9-31.8-18.6-44.7l17.4-22.2l-16.1-16.1l-22.2,17.4
	c-12.9-9.5-28.1-16-44.6-18.4L161.4,23h-22.8l-3.4,28.1c-16.5,2.4-31.7,8.9-44.6,18.4L68.4,52.1L52.3,68.2l17.4,22.2
	c-9.6,12.9-16.1,28.1-18.6,44.7l-27.9,3.4v22.8l27.8,3.4c2.4,16.7,8.9,32,18.5,44.9l-17.2,21.9l16.1,16.1l21.9-17.2
	c12.9,9.6,28.3,16.2,45,18.7l3.3,27.6h22.8l3.3-27.6c16.7-2.5,32-9,45-18.7l21.9,17.2l16.1-16.1l-17.2-21.9
	c9.6-12.9,16.1-28.3,18.5-44.9L276.8,161.1z"/>
<circle class="st0" cx="150" cy="150" r="49.5"/>
</svg>
