<?xml version="1.0" encoding="utf-8"?>
<!-- Generator: Adobe Illustrator 21.0.2, SVG Export Plug-In . SVG Version: 6.00 Build 0)  -->
<svg version="1.1" id="Layer_1" xmlns="http://www.w3.org/2000/svg" xmlns:xlink="http://www.w3.org/1999/xlink" x="0px" y="0px"
	 viewBox="0 0 200 200" style="enable-background:new 0 0 200 200;" xml:space="preserve">
<style type="text/css">
	.st0{fill:#F36E21;}
</style>
<g>
	<g>
		<path class="st0" d="M100,80.5c11.9,0,21.5,9.6,21.5,21.5s-9.6,21.5-21.5,21.5s-21.5-9.6-21.5-21.5S88.1,80.5,100,80.5 M100,50.5
			c-28.4,0-51.5,23.1-51.5,51.5s23.1,51.5,51.5,51.5s51.5-23.1,51.5-51.5S128.4,50.5,100,50.5L100,50.5z"/>
	</g>
	<g>
		<polygon class="st0" points="69,79 24,79 24,124 69,124 69,79 		"/>
	</g>
	<g>
		<polygon class="st0" points="79.7,23.3 42.3,48.3 67.3,85.7 104.7,60.7 79.7,23.3 		"/>
	</g>
	<g>
		<polygon class="st0" points="134.7,116.3 97.3,141.3 122.3,178.7 159.7,153.7 134.7,116.3 		"/>
	</g>
	<g>
		<polygon class="st0" points="120.3,23.8 97.8,62.7 136.7,85.2 159.2,46.3 120.3,23.8 		"/>
	</g>
	<g>
		<polygon class="st0" points="65.3,114.8 42.8,153.7 81.7,176.2 104.2,137.3 65.3,114.8 		"/>
	</g>
	<g>
		<polygon class="st0" points="178,79 133,79 133,124 178,124 178,79 		"/>
	</g>
</g>
</svg>
