<?xml version="1.0" encoding="utf-8"?>
<!-- Generator: Adobe Illustrator 21.1.0, SVG Export Plug-In . SVG Version: 6.00 Build 0)  -->
<svg version="1.1" id="Layer_1" xmlns="http://www.w3.org/2000/svg" xmlns:xlink="http://www.w3.org/1999/xlink" x="0px" y="0px"
	 viewBox="0 0 300 300" style="enable-background:new 0 0 300 300;" xml:space="preserve">
<style type="text/css">
	.st0{fill:#F36E21;}
</style>
<g>
	<g>
		
			<rect x="135.3" y="50.3" transform="matrix(0.7071 -0.7071 0.7071 0.7071 -62.2751 150.3452)" class="st0" width="30" height="200"/>
		<path class="st0" d="M64.2,41.5l17.9,17.9L60.2,81.4L41.8,63c-2.7,10-0.1,21.1,7.8,29c11.7,11.7,30.7,11.7,42.4,0
			s11.7-30.7,0-42.4C84.5,42,73.9,39.4,64.2,41.5z"/>
		<path class="st0" d="M258.5,235.8l-17.9-17.9l-21.9,21.9l18.4,18.4c-10,2.7-21.1,0.1-29-7.8c-11.7-11.7-11.7-30.7,0-42.4
			s30.7-11.7,42.4,0C258,215.5,260.6,226.1,258.5,235.8z"/>
	</g>
	<g>
		
			<rect x="135.3" y="49.7" transform="matrix(-0.7071 -0.7071 0.7071 -0.7071 150.8336 361.787)" class="st0" width="30" height="200"/>
		<path class="st0" d="M41.5,235.8l17.9-17.9l21.9,21.9L63,258.2c10,2.7,21.1,0.1,29-7.8c11.7-11.7,11.7-30.7,0-42.4
			s-30.7-11.7-42.4,0C42,215.5,39.4,226.1,41.5,235.8z"/>
		<path class="st0" d="M235.8,41.5l-17.9,17.9l21.9,21.9L258.2,63c2.7,10,0.1,21.1-7.8,29c-11.7,11.7-30.7,11.7-42.4,0
			s-11.7-30.7,0-42.4C215.5,42,226.1,39.4,235.8,41.5z"/>
	</g>
</g>
</svg>
